<mxfile host="app.diagrams.net" modified="2021-03-22T21:07:01.595Z" agent="5.0 (Windows NT 10.0; Win64; x64) AppleWebKit/537.36 (KHTML, like Gecko) Chrome/87.0.4280.141 Safari/537.36 OPR/73.0.3856.415" etag="4g0sgFOy0w2x3c5TltYS" version="14.4.9" type="github">
  <diagram name="Page-1" id="c4acf3e9-155e-7222-9cf6-157b1a14988f">
    <mxGraphModel dx="1318" dy="1586" grid="1" gridSize="10" guides="1" tooltips="1" connect="1" arrows="1" fold="1" page="1" pageScale="1" pageWidth="850" pageHeight="1100" background="#ffffff" math="0" shadow="0">
      <root>
        <mxCell id="0" />
        <mxCell id="1" parent="0" />
        <mxCell id="MBrmrGQKFiDTjkyMA0DN-14" value="Корабель" style="swimlane;fontStyle=0;childLayout=stackLayout;horizontal=1;startSize=26;fillColor=none;horizontalStack=0;resizeParent=1;resizeParentMax=0;resizeLast=0;collapsible=1;marginBottom=0;" vertex="1" parent="1">
          <mxGeometry x="55" y="7" width="140" height="110" as="geometry" />
        </mxCell>
        <mxCell id="MBrmrGQKFiDTjkyMA0DN-15" value="Довжина&#xa;" style="text;strokeColor=none;fillColor=none;align=left;verticalAlign=top;spacingLeft=4;spacingRight=4;overflow=hidden;rotatable=0;points=[[0,0.5],[1,0.5]];portConstraint=eastwest;" vertex="1" parent="MBrmrGQKFiDTjkyMA0DN-14">
          <mxGeometry y="26" width="140" height="26" as="geometry" />
        </mxCell>
        <mxCell id="MBrmrGQKFiDTjkyMA0DN-16" value="Ширина" style="text;strokeColor=none;fillColor=none;align=left;verticalAlign=top;spacingLeft=4;spacingRight=4;overflow=hidden;rotatable=0;points=[[0,0.5],[1,0.5]];portConstraint=eastwest;" vertex="1" parent="MBrmrGQKFiDTjkyMA0DN-14">
          <mxGeometry y="52" width="140" height="26" as="geometry" />
        </mxCell>
        <mxCell id="MBrmrGQKFiDTjkyMA0DN-17" value="Кількість Екіпажу&#xa;" style="text;strokeColor=none;fillColor=none;align=left;verticalAlign=top;spacingLeft=4;spacingRight=4;overflow=hidden;rotatable=0;points=[[0,0.5],[1,0.5]];portConstraint=eastwest;" vertex="1" parent="MBrmrGQKFiDTjkyMA0DN-14">
          <mxGeometry y="78" width="140" height="32" as="geometry" />
        </mxCell>
        <mxCell id="MBrmrGQKFiDTjkyMA0DN-18" value="Цивільний корабель" style="swimlane;fontStyle=0;childLayout=stackLayout;horizontal=1;startSize=26;fillColor=none;horizontalStack=0;resizeParent=1;resizeParentMax=0;resizeLast=0;collapsible=1;marginBottom=0;" vertex="1" parent="1">
          <mxGeometry x="40" y="160" width="170" height="52" as="geometry" />
        </mxCell>
        <mxCell id="MBrmrGQKFiDTjkyMA0DN-19" value="Комерційне призначення" style="text;strokeColor=none;fillColor=none;align=left;verticalAlign=top;spacingLeft=4;spacingRight=4;overflow=hidden;rotatable=0;points=[[0,0.5],[1,0.5]];portConstraint=eastwest;" vertex="1" parent="MBrmrGQKFiDTjkyMA0DN-18">
          <mxGeometry y="26" width="170" height="26" as="geometry" />
        </mxCell>
        <mxCell id="MBrmrGQKFiDTjkyMA0DN-22" value="Воєнні кораблі" style="swimlane;fontStyle=0;childLayout=stackLayout;horizontal=1;startSize=26;fillColor=none;horizontalStack=0;resizeParent=1;resizeParentMax=0;resizeLast=0;collapsible=1;marginBottom=0;" vertex="1" parent="1">
          <mxGeometry x="240" y="50" width="180" height="52" as="geometry" />
        </mxCell>
        <mxCell id="MBrmrGQKFiDTjkyMA0DN-23" value="Некомерційне призначення" style="text;strokeColor=none;fillColor=none;align=left;verticalAlign=top;spacingLeft=4;spacingRight=4;overflow=hidden;rotatable=0;points=[[0,0.5],[1,0.5]];portConstraint=eastwest;" vertex="1" parent="MBrmrGQKFiDTjkyMA0DN-22">
          <mxGeometry y="26" width="180" height="26" as="geometry" />
        </mxCell>
        <mxCell id="MBrmrGQKFiDTjkyMA0DN-27" value="" style="endArrow=none;html=1;exitX=0.5;exitY=0;exitDx=0;exitDy=0;" edge="1" parent="1" source="MBrmrGQKFiDTjkyMA0DN-18" target="MBrmrGQKFiDTjkyMA0DN-17">
          <mxGeometry width="50" height="50" relative="1" as="geometry">
            <mxPoint x="280" y="380" as="sourcePoint" />
            <mxPoint x="330" y="330" as="targetPoint" />
          </mxGeometry>
        </mxCell>
        <mxCell id="MBrmrGQKFiDTjkyMA0DN-28" value="" style="endArrow=none;html=1;exitX=1;exitY=0.5;exitDx=0;exitDy=0;entryX=0;entryY=0.5;entryDx=0;entryDy=0;" edge="1" parent="1" source="MBrmrGQKFiDTjkyMA0DN-16">
          <mxGeometry width="50" height="50" relative="1" as="geometry">
            <mxPoint x="190" y="90" as="sourcePoint" />
            <mxPoint x="240" y="71.99999999999989" as="targetPoint" />
          </mxGeometry>
        </mxCell>
        <mxCell id="MBrmrGQKFiDTjkyMA0DN-33" value="" style="endArrow=none;html=1;exitX=1.002;exitY=0.152;exitDx=0;exitDy=0;exitPerimeter=0;entryX=0;entryY=0.5;entryDx=0;entryDy=0;" edge="1" parent="1" source="MBrmrGQKFiDTjkyMA0DN-23">
          <mxGeometry width="50" height="50" relative="1" as="geometry">
            <mxPoint x="420" y="110" as="sourcePoint" />
            <mxPoint x="480" y="79" as="targetPoint" />
          </mxGeometry>
        </mxCell>
        <mxCell id="MBrmrGQKFiDTjkyMA0DN-34" value="Авіаносець" style="swimlane;fontStyle=1;align=center;verticalAlign=top;childLayout=stackLayout;horizontal=1;startSize=26;horizontalStack=0;resizeParent=1;resizeParentMax=0;resizeLast=0;collapsible=1;marginBottom=0;" vertex="1" parent="1">
          <mxGeometry x="480" y="33" width="160" height="130" as="geometry" />
        </mxCell>
        <mxCell id="MBrmrGQKFiDTjkyMA0DN-35" value="Розмір злітної смуги&#xa;Висота палуби&#xa;Літако місткість" style="text;strokeColor=none;fillColor=none;align=left;verticalAlign=top;spacingLeft=4;spacingRight=4;overflow=hidden;rotatable=0;points=[[0,0.5],[1,0.5]];portConstraint=eastwest;" vertex="1" parent="MBrmrGQKFiDTjkyMA0DN-34">
          <mxGeometry y="26" width="160" height="54" as="geometry" />
        </mxCell>
        <mxCell id="MBrmrGQKFiDTjkyMA0DN-36" value="" style="line;strokeWidth=1;fillColor=none;align=left;verticalAlign=middle;spacingTop=-1;spacingLeft=3;spacingRight=3;rotatable=0;labelPosition=right;points=[];portConstraint=eastwest;" vertex="1" parent="MBrmrGQKFiDTjkyMA0DN-34">
          <mxGeometry y="80" width="160" height="8" as="geometry" />
        </mxCell>
        <mxCell id="MBrmrGQKFiDTjkyMA0DN-37" value="Зберігання літаків&#xa;Обслуговування кораблів" style="text;strokeColor=none;fillColor=none;align=left;verticalAlign=top;spacingLeft=4;spacingRight=4;overflow=hidden;rotatable=0;points=[[0,0.5],[1,0.5]];portConstraint=eastwest;" vertex="1" parent="MBrmrGQKFiDTjkyMA0DN-34">
          <mxGeometry y="88" width="160" height="42" as="geometry" />
        </mxCell>
        <mxCell id="MBrmrGQKFiDTjkyMA0DN-38" value="Десантний корабель" style="swimlane;fontStyle=1;align=center;verticalAlign=top;childLayout=stackLayout;horizontal=1;startSize=26;horizontalStack=0;resizeParent=1;resizeParentMax=0;resizeLast=0;collapsible=1;marginBottom=0;" vertex="1" parent="1">
          <mxGeometry x="640" y="212" width="190" height="170" as="geometry" />
        </mxCell>
        <mxCell id="MBrmrGQKFiDTjkyMA0DN-39" value="Кількість місць для солдатів&#xa;Швидкість&#xa;Загальна місткість воєнної сили" style="text;strokeColor=none;fillColor=none;align=left;verticalAlign=top;spacingLeft=4;spacingRight=4;overflow=hidden;rotatable=0;points=[[0,0.5],[1,0.5]];portConstraint=eastwest;" vertex="1" parent="MBrmrGQKFiDTjkyMA0DN-38">
          <mxGeometry y="26" width="190" height="74" as="geometry" />
        </mxCell>
        <mxCell id="MBrmrGQKFiDTjkyMA0DN-40" value="" style="line;strokeWidth=1;fillColor=none;align=left;verticalAlign=middle;spacingTop=-1;spacingLeft=3;spacingRight=3;rotatable=0;labelPosition=right;points=[];portConstraint=eastwest;" vertex="1" parent="MBrmrGQKFiDTjkyMA0DN-38">
          <mxGeometry y="100" width="190" height="8" as="geometry" />
        </mxCell>
        <mxCell id="MBrmrGQKFiDTjkyMA0DN-41" value="транспортування воєнної &#xa;сили(солдатів)" style="text;strokeColor=none;fillColor=none;align=left;verticalAlign=top;spacingLeft=4;spacingRight=4;overflow=hidden;rotatable=0;points=[[0,0.5],[1,0.5]];portConstraint=eastwest;" vertex="1" parent="MBrmrGQKFiDTjkyMA0DN-38">
          <mxGeometry y="108" width="190" height="62" as="geometry" />
        </mxCell>
        <mxCell id="MBrmrGQKFiDTjkyMA0DN-43" value="" style="endArrow=none;html=1;exitX=0.5;exitY=0;exitDx=0;exitDy=0;entryX=0.472;entryY=1.011;entryDx=0;entryDy=0;entryPerimeter=0;" edge="1" parent="1" source="MBrmrGQKFiDTjkyMA0DN-38" target="MBrmrGQKFiDTjkyMA0DN-23">
          <mxGeometry width="50" height="50" relative="1" as="geometry">
            <mxPoint x="490" y="220" as="sourcePoint" />
            <mxPoint x="329" y="107" as="targetPoint" />
            <Array as="points">
              <mxPoint x="735" y="190" />
              <mxPoint x="325" y="190" />
            </Array>
          </mxGeometry>
        </mxCell>
        <mxCell id="MBrmrGQKFiDTjkyMA0DN-48" value="Есмінець" style="swimlane;fontStyle=1;align=center;verticalAlign=top;childLayout=stackLayout;horizontal=1;startSize=26;horizontalStack=0;resizeParent=1;resizeParentMax=0;resizeLast=0;collapsible=1;marginBottom=0;" vertex="1" parent="1">
          <mxGeometry x="450" y="450" width="160" height="120" as="geometry" />
        </mxCell>
        <mxCell id="MBrmrGQKFiDTjkyMA0DN-49" value="потужність радіо-локаторів&#xa;Градус огляду" style="text;strokeColor=none;fillColor=none;align=left;verticalAlign=top;spacingLeft=4;spacingRight=4;overflow=hidden;rotatable=0;points=[[0,0.5],[1,0.5]];portConstraint=eastwest;" vertex="1" parent="MBrmrGQKFiDTjkyMA0DN-48">
          <mxGeometry y="26" width="160" height="44" as="geometry" />
        </mxCell>
        <mxCell id="MBrmrGQKFiDTjkyMA0DN-50" value="" style="line;strokeWidth=1;fillColor=none;align=left;verticalAlign=middle;spacingTop=-1;spacingLeft=3;spacingRight=3;rotatable=0;labelPosition=right;points=[];portConstraint=eastwest;" vertex="1" parent="MBrmrGQKFiDTjkyMA0DN-48">
          <mxGeometry y="70" width="160" height="8" as="geometry" />
        </mxCell>
        <mxCell id="MBrmrGQKFiDTjkyMA0DN-51" value="Виявлення та деактивація &#xa;підводних мін" style="text;strokeColor=none;fillColor=none;align=left;verticalAlign=top;spacingLeft=4;spacingRight=4;overflow=hidden;rotatable=0;points=[[0,0.5],[1,0.5]];portConstraint=eastwest;" vertex="1" parent="MBrmrGQKFiDTjkyMA0DN-48">
          <mxGeometry y="78" width="160" height="42" as="geometry" />
        </mxCell>
        <mxCell id="MBrmrGQKFiDTjkyMA0DN-52" value="" style="endArrow=none;html=1;exitX=0.5;exitY=0;exitDx=0;exitDy=0;entryX=0;entryY=0.5;entryDx=0;entryDy=0;" edge="1" parent="1" source="MBrmrGQKFiDTjkyMA0DN-48" target="MBrmrGQKFiDTjkyMA0DN-39">
          <mxGeometry width="50" height="50" relative="1" as="geometry">
            <mxPoint x="290" y="420" as="sourcePoint" />
            <mxPoint x="340" y="370" as="targetPoint" />
            <Array as="points">
              <mxPoint x="530" y="275" />
            </Array>
          </mxGeometry>
        </mxCell>
        <mxCell id="MBrmrGQKFiDTjkyMA0DN-53" value="" style="endArrow=none;html=1;exitX=0.496;exitY=0;exitDx=0;exitDy=0;exitPerimeter=0;" edge="1" parent="1" source="MBrmrGQKFiDTjkyMA0DN-54">
          <mxGeometry width="50" height="50" relative="1" as="geometry">
            <mxPoint x="749.29" y="442" as="sourcePoint" />
            <mxPoint x="749.29" y="382" as="targetPoint" />
          </mxGeometry>
        </mxCell>
        <mxCell id="MBrmrGQKFiDTjkyMA0DN-54" value="Корвет" style="swimlane;fontStyle=1;align=center;verticalAlign=top;childLayout=stackLayout;horizontal=1;startSize=26;horizontalStack=0;resizeParent=1;resizeParentMax=0;resizeLast=0;collapsible=1;marginBottom=0;" vertex="1" parent="1">
          <mxGeometry x="670" y="450" width="160" height="140" as="geometry" />
        </mxCell>
        <mxCell id="MBrmrGQKFiDTjkyMA0DN-55" value="Кріпкість броні&#xa;Кількість вогневих позтцій&#xa;Надійність звязку на судні" style="text;strokeColor=none;fillColor=none;align=left;verticalAlign=top;spacingLeft=4;spacingRight=4;overflow=hidden;rotatable=0;points=[[0,0.5],[1,0.5]];portConstraint=eastwest;" vertex="1" parent="MBrmrGQKFiDTjkyMA0DN-54">
          <mxGeometry y="26" width="160" height="54" as="geometry" />
        </mxCell>
        <mxCell id="MBrmrGQKFiDTjkyMA0DN-56" value="" style="line;strokeWidth=1;fillColor=none;align=left;verticalAlign=middle;spacingTop=-1;spacingLeft=3;spacingRight=3;rotatable=0;labelPosition=right;points=[];portConstraint=eastwest;" vertex="1" parent="MBrmrGQKFiDTjkyMA0DN-54">
          <mxGeometry y="80" width="160" height="8" as="geometry" />
        </mxCell>
        <mxCell id="MBrmrGQKFiDTjkyMA0DN-57" value="Повітряна та морська&#xa;оборона об&#39;єкта" style="text;strokeColor=none;fillColor=none;align=left;verticalAlign=top;spacingLeft=4;spacingRight=4;overflow=hidden;rotatable=0;points=[[0,0.5],[1,0.5]];portConstraint=eastwest;" vertex="1" parent="MBrmrGQKFiDTjkyMA0DN-54">
          <mxGeometry y="88" width="160" height="52" as="geometry" />
        </mxCell>
        <mxCell id="MBrmrGQKFiDTjkyMA0DN-58" value="" style="endArrow=none;html=1;exitX=1;exitY=0.5;exitDx=0;exitDy=0;entryX=0.5;entryY=0;entryDx=0;entryDy=0;" edge="1" parent="1" source="MBrmrGQKFiDTjkyMA0DN-39" target="MBrmrGQKFiDTjkyMA0DN-59">
          <mxGeometry width="50" height="50" relative="1" as="geometry">
            <mxPoint x="650" y="320" as="sourcePoint" />
            <mxPoint x="770" y="460" as="targetPoint" />
            <Array as="points">
              <mxPoint x="995" y="275" />
            </Array>
          </mxGeometry>
        </mxCell>
        <mxCell id="MBrmrGQKFiDTjkyMA0DN-59" value="Катер" style="swimlane;fontStyle=1;align=center;verticalAlign=top;childLayout=stackLayout;horizontal=1;startSize=26;horizontalStack=0;resizeParent=1;resizeParentMax=0;resizeLast=0;collapsible=1;marginBottom=0;" vertex="1" parent="1">
          <mxGeometry x="910" y="450" width="170" height="148" as="geometry" />
        </mxCell>
        <mxCell id="MBrmrGQKFiDTjkyMA0DN-60" value="Маневреність&#xa;Вогнева сила&#xa;Загальна кількість солдат" style="text;strokeColor=none;fillColor=none;align=left;verticalAlign=top;spacingLeft=4;spacingRight=4;overflow=hidden;rotatable=0;points=[[0,0.5],[1,0.5]];portConstraint=eastwest;" vertex="1" parent="MBrmrGQKFiDTjkyMA0DN-59">
          <mxGeometry y="26" width="170" height="54" as="geometry" />
        </mxCell>
        <mxCell id="MBrmrGQKFiDTjkyMA0DN-61" value="" style="line;strokeWidth=1;fillColor=none;align=left;verticalAlign=middle;spacingTop=-1;spacingLeft=3;spacingRight=3;rotatable=0;labelPosition=right;points=[];portConstraint=eastwest;" vertex="1" parent="MBrmrGQKFiDTjkyMA0DN-59">
          <mxGeometry y="80" width="170" height="8" as="geometry" />
        </mxCell>
        <mxCell id="MBrmrGQKFiDTjkyMA0DN-62" value="Патрулювання прибережних &#xa;теритоій, усунення&#xa; прибережних цілей&#xa;" style="text;strokeColor=none;fillColor=none;align=left;verticalAlign=top;spacingLeft=4;spacingRight=4;overflow=hidden;rotatable=0;points=[[0,0.5],[1,0.5]];portConstraint=eastwest;" vertex="1" parent="MBrmrGQKFiDTjkyMA0DN-59">
          <mxGeometry y="88" width="170" height="60" as="geometry" />
        </mxCell>
        <mxCell id="MBrmrGQKFiDTjkyMA0DN-63" value="Контейнеровоз" style="swimlane;fontStyle=1;align=center;verticalAlign=top;childLayout=stackLayout;horizontal=1;startSize=26;horizontalStack=0;resizeParent=1;resizeParentMax=0;resizeLast=0;collapsible=1;marginBottom=0;" vertex="1" parent="1">
          <mxGeometry x="37.5" y="280" width="175" height="120" as="geometry" />
        </mxCell>
        <mxCell id="MBrmrGQKFiDTjkyMA0DN-64" value="грузопідйомність&#xa;плавучість" style="text;strokeColor=none;fillColor=none;align=left;verticalAlign=top;spacingLeft=4;spacingRight=4;overflow=hidden;rotatable=0;points=[[0,0.5],[1,0.5]];portConstraint=eastwest;" vertex="1" parent="MBrmrGQKFiDTjkyMA0DN-63">
          <mxGeometry y="26" width="175" height="44" as="geometry" />
        </mxCell>
        <mxCell id="MBrmrGQKFiDTjkyMA0DN-65" value="" style="line;strokeWidth=1;fillColor=none;align=left;verticalAlign=middle;spacingTop=-1;spacingLeft=3;spacingRight=3;rotatable=0;labelPosition=right;points=[];portConstraint=eastwest;" vertex="1" parent="MBrmrGQKFiDTjkyMA0DN-63">
          <mxGeometry y="70" width="175" height="8" as="geometry" />
        </mxCell>
        <mxCell id="MBrmrGQKFiDTjkyMA0DN-66" value="Транспортування контейнерів &#xa;на далекі відстанні" style="text;strokeColor=none;fillColor=none;align=left;verticalAlign=top;spacingLeft=4;spacingRight=4;overflow=hidden;rotatable=0;points=[[0,0.5],[1,0.5]];portConstraint=eastwest;" vertex="1" parent="MBrmrGQKFiDTjkyMA0DN-63">
          <mxGeometry y="78" width="175" height="42" as="geometry" />
        </mxCell>
        <mxCell id="MBrmrGQKFiDTjkyMA0DN-67" value="" style="endArrow=none;html=1;" edge="1" parent="1" target="MBrmrGQKFiDTjkyMA0DN-19">
          <mxGeometry width="50" height="50" relative="1" as="geometry">
            <mxPoint x="124" y="280" as="sourcePoint" />
            <mxPoint x="150" y="220" as="targetPoint" />
          </mxGeometry>
        </mxCell>
        <mxCell id="MBrmrGQKFiDTjkyMA0DN-68" value="" style="endArrow=none;html=1;" edge="1" parent="1">
          <mxGeometry width="50" height="50" relative="1" as="geometry">
            <mxPoint x="125" y="240" as="sourcePoint" />
            <mxPoint x="310" y="280" as="targetPoint" />
            <Array as="points">
              <mxPoint x="310" y="240" />
            </Array>
          </mxGeometry>
        </mxCell>
        <mxCell id="MBrmrGQKFiDTjkyMA0DN-69" value="Танкер" style="swimlane;fontStyle=1;align=center;verticalAlign=top;childLayout=stackLayout;horizontal=1;startSize=26;horizontalStack=0;resizeParent=1;resizeParentMax=0;resizeLast=0;collapsible=1;marginBottom=0;" vertex="1" parent="1">
          <mxGeometry x="240" y="280" width="160" height="120" as="geometry" />
        </mxCell>
        <mxCell id="MBrmrGQKFiDTjkyMA0DN-70" value="Емність судна&#xa;Рівень безпеки та &#xa;надійності" style="text;strokeColor=none;fillColor=none;align=left;verticalAlign=top;spacingLeft=4;spacingRight=4;overflow=hidden;rotatable=0;points=[[0,0.5],[1,0.5]];portConstraint=eastwest;" vertex="1" parent="MBrmrGQKFiDTjkyMA0DN-69">
          <mxGeometry y="26" width="160" height="44" as="geometry" />
        </mxCell>
        <mxCell id="MBrmrGQKFiDTjkyMA0DN-71" value="" style="line;strokeWidth=1;fillColor=none;align=left;verticalAlign=middle;spacingTop=-1;spacingLeft=3;spacingRight=3;rotatable=0;labelPosition=right;points=[];portConstraint=eastwest;" vertex="1" parent="MBrmrGQKFiDTjkyMA0DN-69">
          <mxGeometry y="70" width="160" height="10" as="geometry" />
        </mxCell>
        <mxCell id="MBrmrGQKFiDTjkyMA0DN-72" value="Транспортування рідин на&#xa;далекі відстанні" style="text;strokeColor=none;fillColor=none;align=left;verticalAlign=top;spacingLeft=4;spacingRight=4;overflow=hidden;rotatable=0;points=[[0,0.5],[1,0.5]];portConstraint=eastwest;" vertex="1" parent="MBrmrGQKFiDTjkyMA0DN-69">
          <mxGeometry y="80" width="160" height="40" as="geometry" />
        </mxCell>
        <mxCell id="MBrmrGQKFiDTjkyMA0DN-73" value="" style="endArrow=none;html=1;exitX=0;exitY=0.5;exitDx=0;exitDy=0;" edge="1" parent="1" source="MBrmrGQKFiDTjkyMA0DN-78">
          <mxGeometry width="50" height="50" relative="1" as="geometry">
            <mxPoint x="80" y="490" as="sourcePoint" />
            <mxPoint x="40" y="184" as="targetPoint" />
            <Array as="points">
              <mxPoint x="10" y="508" />
              <mxPoint x="10" y="184" />
            </Array>
          </mxGeometry>
        </mxCell>
        <mxCell id="MBrmrGQKFiDTjkyMA0DN-74" value="Риболовний" style="swimlane;fontStyle=1;align=center;verticalAlign=top;childLayout=stackLayout;horizontal=1;startSize=26;horizontalStack=0;resizeParent=1;resizeParentMax=0;resizeLast=0;collapsible=1;marginBottom=0;" vertex="1" parent="1">
          <mxGeometry x="70" y="450" width="160" height="124" as="geometry" />
        </mxCell>
        <mxCell id="MBrmrGQKFiDTjkyMA0DN-78" value="Ємність сітки&#xa;Дальність ходу&#xa;Загальний обєм&#xa;транспортування" style="text;strokeColor=none;fillColor=none;align=left;verticalAlign=top;spacingLeft=4;spacingRight=4;overflow=hidden;rotatable=0;points=[[0,0.5],[1,0.5]];portConstraint=eastwest;" vertex="1" parent="MBrmrGQKFiDTjkyMA0DN-74">
          <mxGeometry y="26" width="160" height="64" as="geometry" />
        </mxCell>
        <mxCell id="MBrmrGQKFiDTjkyMA0DN-76" value="" style="line;strokeWidth=1;fillColor=none;align=left;verticalAlign=middle;spacingTop=-1;spacingLeft=3;spacingRight=3;rotatable=0;labelPosition=right;points=[];portConstraint=eastwest;" vertex="1" parent="MBrmrGQKFiDTjkyMA0DN-74">
          <mxGeometry y="90" width="160" height="8" as="geometry" />
        </mxCell>
        <mxCell id="MBrmrGQKFiDTjkyMA0DN-77" value="Вилов риби" style="text;strokeColor=none;fillColor=none;align=left;verticalAlign=top;spacingLeft=4;spacingRight=4;overflow=hidden;rotatable=0;points=[[0,0.5],[1,0.5]];portConstraint=eastwest;" vertex="1" parent="MBrmrGQKFiDTjkyMA0DN-74">
          <mxGeometry y="98" width="160" height="26" as="geometry" />
        </mxCell>
        <mxCell id="MBrmrGQKFiDTjkyMA0DN-79" value="" style="endArrow=none;html=1;exitX=0;exitY=0.5;exitDx=0;exitDy=0;" edge="1" parent="1" source="MBrmrGQKFiDTjkyMA0DN-81">
          <mxGeometry width="50" height="50" relative="1" as="geometry">
            <mxPoint x="60" y="718" as="sourcePoint" />
            <mxPoint x="10" y="500" as="targetPoint" />
            <Array as="points">
              <mxPoint x="10" y="680" />
            </Array>
          </mxGeometry>
        </mxCell>
        <mxCell id="MBrmrGQKFiDTjkyMA0DN-80" value="Дослідницький" style="swimlane;fontStyle=1;align=center;verticalAlign=top;childLayout=stackLayout;horizontal=1;startSize=26;horizontalStack=0;resizeParent=1;resizeParentMax=0;resizeLast=0;collapsible=1;marginBottom=0;" vertex="1" parent="1">
          <mxGeometry x="80" y="620" width="160" height="160" as="geometry" />
        </mxCell>
        <mxCell id="MBrmrGQKFiDTjkyMA0DN-81" value="Потцжність радіолокаторів&#xa;Потужність антен звязку &#xa;Даліьність ходу" style="text;strokeColor=none;fillColor=none;align=left;verticalAlign=top;spacingLeft=4;spacingRight=4;overflow=hidden;rotatable=0;points=[[0,0.5],[1,0.5]];portConstraint=eastwest;" vertex="1" parent="MBrmrGQKFiDTjkyMA0DN-80">
          <mxGeometry y="26" width="160" height="64" as="geometry" />
        </mxCell>
        <mxCell id="MBrmrGQKFiDTjkyMA0DN-82" value="" style="line;strokeWidth=1;fillColor=none;align=left;verticalAlign=middle;spacingTop=-1;spacingLeft=3;spacingRight=3;rotatable=0;labelPosition=right;points=[];portConstraint=eastwest;" vertex="1" parent="MBrmrGQKFiDTjkyMA0DN-80">
          <mxGeometry y="90" width="160" height="8" as="geometry" />
        </mxCell>
        <mxCell id="MBrmrGQKFiDTjkyMA0DN-83" value="Вивчення дна&#xa;Вивчення флори і фауни &#xa;моря" style="text;strokeColor=none;fillColor=none;align=left;verticalAlign=top;spacingLeft=4;spacingRight=4;overflow=hidden;rotatable=0;points=[[0,0.5],[1,0.5]];portConstraint=eastwest;" vertex="1" parent="MBrmrGQKFiDTjkyMA0DN-80">
          <mxGeometry y="98" width="160" height="62" as="geometry" />
        </mxCell>
        <mxCell id="MBrmrGQKFiDTjkyMA0DN-84" value="" style="endArrow=none;html=1;exitX=1.019;exitY=0.038;exitDx=0;exitDy=0;exitPerimeter=0;" edge="1" parent="1" source="MBrmrGQKFiDTjkyMA0DN-19">
          <mxGeometry width="50" height="50" relative="1" as="geometry">
            <mxPoint x="210" y="210" as="sourcePoint" />
            <mxPoint x="360" y="470" as="targetPoint" />
            <Array as="points">
              <mxPoint x="300" y="187" />
              <mxPoint x="300" y="220" />
              <mxPoint x="440" y="220" />
              <mxPoint x="440" y="420" />
              <mxPoint x="360" y="420" />
            </Array>
          </mxGeometry>
        </mxCell>
        <mxCell id="MBrmrGQKFiDTjkyMA0DN-85" value="Яхта" style="swimlane;fontStyle=1;align=center;verticalAlign=top;childLayout=stackLayout;horizontal=1;startSize=26;horizontalStack=0;resizeParent=1;resizeParentMax=0;resizeLast=0;collapsible=1;marginBottom=0;" vertex="1" parent="1">
          <mxGeometry x="270" y="467" width="160" height="150" as="geometry" />
        </mxCell>
        <mxCell id="MBrmrGQKFiDTjkyMA0DN-86" value="Кількість екіпажу&#xa;Розмір палуб&#xa;Дальність ходу" style="text;strokeColor=none;fillColor=none;align=left;verticalAlign=top;spacingLeft=4;spacingRight=4;overflow=hidden;rotatable=0;points=[[0,0.5],[1,0.5]];portConstraint=eastwest;" vertex="1" parent="MBrmrGQKFiDTjkyMA0DN-85">
          <mxGeometry y="26" width="160" height="54" as="geometry" />
        </mxCell>
        <mxCell id="MBrmrGQKFiDTjkyMA0DN-87" value="" style="line;strokeWidth=1;fillColor=none;align=left;verticalAlign=middle;spacingTop=-1;spacingLeft=3;spacingRight=3;rotatable=0;labelPosition=right;points=[];portConstraint=eastwest;" vertex="1" parent="MBrmrGQKFiDTjkyMA0DN-85">
          <mxGeometry y="80" width="160" height="8" as="geometry" />
        </mxCell>
        <mxCell id="MBrmrGQKFiDTjkyMA0DN-88" value="Транспортування власника&#xa;Відпочинок стоячи на &#xa;одному місці" style="text;strokeColor=none;fillColor=none;align=left;verticalAlign=top;spacingLeft=4;spacingRight=4;overflow=hidden;rotatable=0;points=[[0,0.5],[1,0.5]];portConstraint=eastwest;" vertex="1" parent="MBrmrGQKFiDTjkyMA0DN-85">
          <mxGeometry y="88" width="160" height="62" as="geometry" />
        </mxCell>
        <mxCell id="MBrmrGQKFiDTjkyMA0DN-89" value="" style="endArrow=none;html=1;exitX=1;exitY=0.5;exitDx=0;exitDy=0;" edge="1" parent="1" source="MBrmrGQKFiDTjkyMA0DN-91">
          <mxGeometry width="50" height="50" relative="1" as="geometry">
            <mxPoint x="440" y="750" as="sourcePoint" />
            <mxPoint x="440" y="410" as="targetPoint" />
            <Array as="points">
              <mxPoint x="440" y="733" />
            </Array>
          </mxGeometry>
        </mxCell>
        <mxCell id="MBrmrGQKFiDTjkyMA0DN-90" value="Круїзні лайнери" style="swimlane;fontStyle=1;align=center;verticalAlign=top;childLayout=stackLayout;horizontal=1;startSize=26;horizontalStack=0;resizeParent=1;resizeParentMax=0;resizeLast=0;collapsible=1;marginBottom=0;" vertex="1" parent="1">
          <mxGeometry x="270" y="670" width="160" height="180" as="geometry" />
        </mxCell>
        <mxCell id="MBrmrGQKFiDTjkyMA0DN-91" value="Кількість екіпажу&#xa;Кількість кают&#xa;Кількість шлюбок&#xa;Загальна місткість" style="text;strokeColor=none;fillColor=none;align=left;verticalAlign=top;spacingLeft=4;spacingRight=4;overflow=hidden;rotatable=0;points=[[0,0.5],[1,0.5]];portConstraint=eastwest;" vertex="1" parent="MBrmrGQKFiDTjkyMA0DN-90">
          <mxGeometry y="26" width="160" height="74" as="geometry" />
        </mxCell>
        <mxCell id="MBrmrGQKFiDTjkyMA0DN-92" value="" style="line;strokeWidth=1;fillColor=none;align=left;verticalAlign=middle;spacingTop=-1;spacingLeft=3;spacingRight=3;rotatable=0;labelPosition=right;points=[];portConstraint=eastwest;" vertex="1" parent="MBrmrGQKFiDTjkyMA0DN-90">
          <mxGeometry y="100" width="160" height="8" as="geometry" />
        </mxCell>
        <mxCell id="MBrmrGQKFiDTjkyMA0DN-93" value="Транспортування великої&#xa; кількісті людей на дальні &#xa;відстанні з максимальним &#xa;компфортом" style="text;strokeColor=none;fillColor=none;align=left;verticalAlign=top;spacingLeft=4;spacingRight=4;overflow=hidden;rotatable=0;points=[[0,0.5],[1,0.5]];portConstraint=eastwest;" vertex="1" parent="MBrmrGQKFiDTjkyMA0DN-90">
          <mxGeometry y="108" width="160" height="72" as="geometry" />
        </mxCell>
      </root>
    </mxGraphModel>
  </diagram>
</mxfile>
